<?xml version="1.0" encoding="iso-8859-1"?>
<!-- Uploaded to: SVG Repo, www.svgrepo.com, Generator: SVG Repo Mixer Tools -->
<!DOCTYPE svg PUBLIC "-//W3C//DTD SVG 1.1//EN" "http://www.w3.org/Graphics/SVG/1.1/DTD/svg11.dtd">
<svg fill="#3fbbc0" version="1.1" id="Capa_1" xmlns="http://www.w3.org/2000/svg" xmlns:xlink="http://www.w3.org/1999/xlink" 
	 width="800px" height="800px" viewBox="0 0 195.471 195.471"
	 xml:space="preserve">
<g>
	<path d="M103.832,79.077c-9.475-8.813-20.172-21.992-20.557-41.768c4.784,16.109,21.146,39.05,65.134,69.122
		c0,0-48.292-67.609-31.95-105.508c0,0-9.018-4.646-27.021,6.908c0.012-0.028,0.021-0.063,0.033-0.096
		c0,0-30.027,20.121-25.012,42.099c0.985,4.342,0.296,9.593-10.153,14.62c-2.096,1-5.822,2.223-4.83,7.923
		c0,0,1.013,4.057,3.037,5.608c0.1,0.077,0.217,0.123,0.308,0.213c2.601,2.477-1.916,1.771-3.338,2.225
		c-2.421,0.777-2.48,5.573,1.359,9.784c0,0-6.192,6.194-2.723,11.645c0,0,0.862,0.983,4.461,0.492c0,0-2.769,19.545,12.259,19.069
		c8.843-0.29,28.113-7.557,35.166,3.842c0,0,23.902,29.352-5.075,70.216c0,0,33.426-12.378,36.895-50.287
		C131.819,145.2,142.474,114.983,103.832,79.077z"/>
</g>
</svg>